<svg xmlns="http://www.w3.org/2000/svg" viewBox="0 0 512 512"><path d="M31.646 281.329s57.693-135.96 224.35-135.96c163.35 0 224.35 135.96 224.35 135.96s-109.55 85.296-224.35 85.296c-112.95 0-224.35-85.296-224.35-85.296z"/><path d="M46.424 281.609s60.047-107.58 209.58-107.58c146.56 0 209.58 107.58 209.58 107.58s-106.57 75.712-209.58 75.712c-101.34 0-209.58-75.712-209.58-75.712z" fill="#fff"/><path d="M358.81 261.564c0 56.776-46.027 102.801-102.804 102.801S153.2 318.34 153.2 261.565s46.027-102.802 102.805-102.802S358.81 204.788 358.81 261.564z" fill-rule="evenodd"/><path d="M220.623 219.908c0 12.73-10.32 23.051-23.051 23.051s-23.052-10.32-23.052-23.051 10.32-23.051 23.052-23.051 23.05 10.32 23.05 23.051z" fill-rule="evenodd" fill="#fff"/></svg>