<?xml version="1.0" encoding="UTF-8" standalone="no"?>
<svg
   viewBox="0 0 512 512"
   version="1.1"
   id="svg26"
   sodipodi:docname="eye-shut.svg"
   inkscape:version="1.2.1 (ef4d3fba62, 2022-07-19, custom)"
   xmlns:inkscape="http://www.inkscape.org/namespaces/inkscape"
   xmlns:sodipodi="http://sodipodi.sourceforge.net/DTD/sodipodi-0.dtd"
   xmlns="http://www.w3.org/2000/svg"
   xmlns:svg="http://www.w3.org/2000/svg">
  <defs
     id="defs30" />
  <sodipodi:namedview
     id="namedview28"
     pagecolor="#ffffff"
     bordercolor="#666666"
     borderopacity="1.0"
     inkscape:showpageshadow="2"
     inkscape:pageopacity="0.0"
     inkscape:pagecheckerboard="0"
     inkscape:deskcolor="#d1d1d1"
     showgrid="false"
     inkscape:zoom="1.84375"
     inkscape:cx="162.71186"
     inkscape:cy="258.98305"
     inkscape:window-width="1920"
     inkscape:window-height="1136"
     inkscape:window-x="0"
     inkscape:window-y="27"
     inkscape:window-maximized="1"
     inkscape:current-layer="svg26" />
  <path
     d="M31.646 281.329s57.693-135.96 224.35-135.96c163.35 0 224.35 135.96 224.35 135.96s-109.55 85.296-224.35 85.296c-112.95 0-224.35-85.296-224.35-85.296z"
     fill="#555"
     id="path18" />
  <path
     d="M46.424 281.609s60.047-107.58 209.58-107.58c146.56 0 209.58 107.58 209.58 107.58s-106.57 75.712-209.58 75.712c-101.34 0-209.58-75.712-209.58-75.712z"
     fill="#2d2d2d"
     id="path20" />
  <path
     d="M358.81 261.564c0 56.776-46.027 102.801-102.804 102.801S153.2 318.34 153.2 261.565s46.027-102.802 102.805-102.802S358.81 204.788 358.81 261.564z"
     fill-rule="evenodd"
     fill="#555"
     id="path22" />
  <path
     d="M220.623 219.908c0 12.73-10.32 23.051-23.051 23.051s-23.052-10.32-23.052-23.051 10.32-23.051 23.052-23.051 23.05 10.32 23.05 23.051z"
     fill-rule="evenodd"
     fill="#2d2d2d"
     id="path24" />
  <path
     style="fill:none;stroke:#555555;stroke-width:37.9;stroke-linecap:butt;stroke-linejoin:miter;stroke-dasharray:none;stroke-opacity:1"
     d="M 86.111328,98.582727 383.16608,425.11806"
     id="path244" />
</svg>
